<svg width="960" height="500" xmlns="http://www.w3.org/2000/svg">
  <path id="HI" d="M223.509,377.66L232.354,382.766L232.354,392.979L223.509,398.085L214.665,392.979L214.665,382.766ZM250.043,392.979L258.887,398.085L258.887,408.298L250.043,413.404L241.198,408.298L241.198,398.085ZM267.732,423.617L267.732,413.404L276.576,408.298L285.421,413.404L285.421,423.617L276.576,428.723L276.576,438.936L267.732,444.043L258.887,438.936L258.887,428.723Z"></path>
  <path id="MI" d="M471.155,71.277L480,76.383L480,86.596L471.155,91.702L471.155,101.915L462.311,107.021L453.466,101.915L453.466,91.702L444.622,86.596L444.622,76.383L453.466,71.277L462.311,76.383ZM515.378,86.596L524.223,91.702L524.223,101.915L533.067,107.021L533.067,117.234L524.223,122.34L524.223,132.553L515.378,137.66L515.378,147.872L524.223,152.979L524.223,163.191L515.378,168.298L506.534,163.191L497.689,168.298L488.845,163.191L480,168.298L471.155,163.191L471.155,152.979L480,147.872L480,137.66L471.155,132.553L471.155,122.34L480,117.234L480,107.021L488.845,101.915L488.845,91.702L497.689,86.596L506.534,91.702Z"></path>
  <path id="ME" d="M780.714,45.745L780.714,55.957L771.869,61.064L763.024,55.957L763.024,45.745L754.18,40.638L754.18,30.426L763.024,25.319L763.024,15.106L771.869,10L780.714,15.106L780.714,25.319L789.558,30.426L789.558,40.638Z"></path>
  <path id="NE" d="M356.177,178.511L365.021,183.617L365.021,193.83L373.866,198.936L373.866,209.149L365.021,214.255L356.177,209.149L347.332,214.255L338.488,209.149L338.488,198.936L329.643,193.83L320.799,198.936L311.954,193.83L311.954,183.617L320.799,178.511L329.643,183.617L338.488,178.511L347.332,183.617Z"></path>
  <path id="FL" d="M541.912,377.66L550.756,382.766L559.601,377.66L568.445,382.766L577.29,377.66L586.134,382.766L594.979,377.66L603.823,382.766L603.823,392.979L594.979,398.085L594.979,408.298L603.823,413.404L603.823,423.617L594.979,428.723L594.979,438.936L603.823,444.043L603.823,454.255L612.668,459.362L612.668,469.574L603.823,474.681L603.823,484.894L594.979,490L586.134,484.894L577.29,490L568.445,484.894L559.601,490L550.756,484.894L550.756,474.681L541.912,469.574L541.912,459.362L533.067,454.255L533.067,444.043L524.223,438.936L524.223,428.723L533.067,423.617L533.067,413.404L524.223,408.298L524.223,398.085L515.378,392.979L506.534,398.085L497.689,392.979L497.689,382.766L506.534,377.66L515.378,382.766L524.223,377.66L533.067,382.766Z"></path>
  <path id="VT" d="M727.646,55.957L727.646,45.745L718.802,40.638L718.802,30.426L727.646,25.319L736.491,30.426L736.491,40.638L745.335,45.745L745.335,55.957L736.491,61.064L736.491,71.277L727.646,76.383L718.802,71.277L718.802,61.064Z"></path>
  <path id="NH" d="M754.18,71.277L745.335,76.383L736.491,71.277L736.491,61.064L745.335,55.957L745.335,45.745L736.491,40.638L736.491,30.426L745.335,25.319L754.18,30.426L754.18,40.638L763.024,45.745L763.024,55.957L771.869,61.064L771.869,71.277L763.024,76.383Z"></path>
  <path id="MA" d="M736.491,71.277L745.335,76.383L754.18,71.277L763.024,76.383L771.869,71.277L780.714,76.383L789.558,71.277L798.403,76.383L798.403,86.596L807.247,91.702L807.247,101.915L798.403,107.021L789.558,101.915L780.714,107.021L771.869,101.915L763.024,107.021L754.18,101.915L745.335,107.021L736.491,101.915L727.646,107.021L718.802,101.915L709.957,107.021L701.113,101.915L701.113,91.702L709.957,86.596L709.957,76.383L718.802,71.277L727.646,76.383Z"></path>
  <path id="WI" d="M444.622,86.596L453.466,91.702L453.466,101.915L462.311,107.021L462.311,117.234L453.466,122.34L453.466,132.553L444.622,137.66L444.622,147.872L453.466,152.979L453.466,163.191L444.622,168.298L435.777,163.191L435.777,152.979L426.933,147.872L418.088,152.979L409.244,147.872L409.244,137.66L418.088,132.553L418.088,122.34L409.244,117.234L409.244,107.021L418.088,101.915L418.088,91.702L426.933,86.596L435.777,91.702Z"></path>
  <path id="CT" d="M736.491,101.915L745.335,107.021L745.335,117.234L754.18,122.34L754.18,132.553L745.335,137.66L745.335,147.872L736.491,152.979L727.646,147.872L718.802,152.979L709.957,147.872L709.957,137.66L701.113,132.553L701.113,122.34L709.957,117.234L709.957,107.021L718.802,101.915L727.646,107.021Z"></path>
  <path id="RI" d="M771.869,101.915L780.714,107.021L780.714,117.234L789.558,122.34L789.558,132.553L780.714,137.66L771.869,132.553L763.024,137.66L754.18,132.553L754.18,122.34L745.335,117.234L745.335,107.021L754.18,101.915L763.024,107.021Z"></path>
  <path id="WA" d="M250.043,117.234L258.887,122.34L258.887,132.553L267.732,137.66L276.576,132.553L285.421,137.66L294.265,132.553L303.11,137.66L303.11,147.872L294.265,152.979L294.265,163.191L285.421,168.298L276.576,163.191L267.732,168.298L258.887,163.191L250.043,168.298L241.198,163.191L232.354,168.298L223.509,163.191L214.665,168.298L205.82,163.191L205.82,152.979L214.665,147.872L214.665,137.66L223.509,132.553L223.509,122.34L232.354,117.234L241.198,122.34Z"></path>
  <path id="MT" d="M338.488,117.234L347.332,122.34L347.332,132.553L338.488,137.66L338.488,147.872L329.643,152.979L320.799,147.872L320.799,137.66L311.954,132.553L311.954,122.34L320.799,117.234L329.643,122.34Z"></path>
  <path id="MN" d="M409.244,117.234L418.088,122.34L418.088,132.553L409.244,137.66L409.244,147.872L418.088,152.979L418.088,163.191L409.244,168.298L409.244,178.511L400.399,183.617L391.555,178.511L382.71,183.617L373.866,178.511L365.021,183.617L356.177,178.511L356.177,168.298L365.021,163.191L365.021,152.979L373.866,147.872L373.866,137.66L382.71,132.553L382.71,122.34L391.555,117.234L400.399,122.34Z"></path>
  <path id="PA" d="M603.823,117.234L612.668,122.34L621.512,117.234L630.357,122.34L639.201,117.234L648.046,122.34L656.89,117.234L665.735,122.34L665.735,132.553L674.579,137.66L674.579,147.872L665.735,152.979L665.735,163.191L656.89,168.298L656.89,178.511L648.046,183.617L639.201,178.511L630.357,183.617L621.512,178.511L612.668,183.617L603.823,178.511L594.979,183.617L586.134,178.511L586.134,168.298L577.29,163.191L577.29,152.979L568.445,147.872L568.445,137.66L577.29,132.553L577.29,122.34L586.134,117.234L594.979,122.34Z"></path>
  <path id="ID" d="M285.421,178.511L285.421,168.298L294.265,163.191L294.265,152.979L303.11,147.872L303.11,137.66L311.954,132.553L320.799,137.66L320.799,147.872L311.954,152.979L311.954,163.191L303.11,168.298L303.11,178.511L294.265,183.617L294.265,193.83L285.421,198.936L276.576,193.83L276.576,183.617Z"></path>
  <path id="ND" d="M365.021,132.553L373.866,137.66L373.866,147.872L365.021,152.979L365.021,163.191L356.177,168.298L347.332,163.191L347.332,152.979L338.488,147.872L338.488,137.66L347.332,132.553L356.177,137.66Z"></path>
  <path id="OH" d="M541.912,132.553L550.756,137.66L559.601,132.553L568.445,137.66L568.445,147.872L577.29,152.979L577.29,163.191L586.134,168.298L586.134,178.511L577.29,183.617L577.29,193.83L568.445,198.936L568.445,209.149L559.601,214.255L550.756,209.149L541.912,214.255L541.912,224.468L533.067,229.574L524.223,224.468L524.223,214.255L515.378,209.149L515.378,198.936L506.534,193.83L506.534,183.617L515.378,178.511L515.378,168.298L524.223,163.191L524.223,152.979L515.378,147.872L515.378,137.66L524.223,132.553L533.067,137.66Z"></path>
  <path id="NJ" d="M701.113,163.191L709.957,168.298L709.957,178.511L701.113,183.617L701.113,193.83L709.957,198.936L709.957,209.149L701.113,214.255L701.113,224.468L692.268,229.574L683.424,224.468L674.579,229.574L665.735,224.468L665.735,214.255L656.89,209.149L656.89,198.936L648.046,193.83L648.046,183.617L656.89,178.511L656.89,168.298L665.735,163.191L665.735,152.979L674.579,147.872L674.579,137.66L683.424,132.553L692.268,137.66L692.268,147.872L701.113,152.979Z"></path>
  <path id="WY" d="M303.11,178.511L303.11,168.298L311.954,163.191L311.954,152.979L320.799,147.872L329.643,152.979L329.643,163.191L320.799,168.298L320.799,178.511L311.954,183.617L311.954,193.83L303.11,198.936L294.265,193.83L294.265,183.617Z"></path>
  <path id="SD" d="M338.488,178.511L329.643,183.617L320.799,178.511L320.799,168.298L329.643,163.191L329.643,152.979L338.488,147.872L347.332,152.979L347.332,163.191L356.177,168.298L356.177,178.511L347.332,183.617Z"></path>
  <path id="IL" d="M444.622,168.298L453.466,163.191L462.311,168.298L462.311,178.511L471.155,183.617L471.155,193.83L480,198.936L480,209.149L471.155,214.255L471.155,224.468L480,229.574L480,239.787L488.845,244.894L488.845,255.106L480,260.213L471.155,255.106L462.311,260.213L453.466,255.106L453.466,244.894L444.622,239.787L435.777,244.894L426.933,239.787L426.933,229.574L418.088,224.468L418.088,214.255L409.244,209.149L409.244,198.936L400.399,193.83L400.399,183.617L409.244,178.511L409.244,168.298L418.088,163.191L418.088,152.979L426.933,147.872L435.777,152.979L435.777,163.191Z"></path>
  <path id="OR" d="M258.887,163.191L267.732,168.298L276.576,163.191L285.421,168.298L285.421,178.511L276.576,183.617L276.576,193.83L267.732,198.936L258.887,193.83L250.043,198.936L241.198,193.83L241.198,183.617L232.354,178.511L223.509,183.617L214.665,178.511L205.82,183.617L196.976,178.511L196.976,168.298L205.82,163.191L214.665,168.298L223.509,163.191L232.354,168.298L241.198,163.191L250.043,168.298Z"></path>
  <path id="IN" d="M488.845,163.191L497.689,168.298L506.534,163.191L515.378,168.298L515.378,178.511L506.534,183.617L506.534,193.83L515.378,198.936L515.378,209.149L524.223,214.255L524.223,224.468L515.378,229.574L506.534,224.468L497.689,229.574L497.689,239.787L488.845,244.894L480,239.787L480,229.574L471.155,224.468L471.155,214.255L480,209.149L480,198.936L471.155,193.83L471.155,183.617L462.311,178.511L462.311,168.298L471.155,163.191L480,168.298Z"></path>
  <path id="CA" d="M214.665,178.511L223.509,183.617L232.354,178.511L241.198,183.617L241.198,193.83L250.043,198.936L258.887,193.83L267.732,198.936L267.732,209.149L276.576,214.255L276.576,224.468L267.732,229.574L267.732,239.787L276.576,244.894L276.576,255.106L267.732,260.213L267.732,270.426L276.576,275.532L276.576,285.745L267.732,290.851L267.732,301.064L258.887,306.17L258.887,316.383L267.732,321.489L267.732,331.702L258.887,336.809L250.043,331.702L241.198,336.809L232.354,331.702L223.509,336.809L214.665,331.702L205.82,336.809L196.976,331.702L196.976,321.489L188.131,316.383L179.286,321.489L170.442,316.383L170.442,306.17L161.597,301.064L161.597,290.851L152.753,285.745L152.753,275.532L161.597,270.426L161.597,260.213L152.753,255.106L152.753,244.894L161.597,239.787L161.597,229.574L170.442,224.468L170.442,214.255L179.286,209.149L179.286,198.936L188.131,193.83L188.131,183.617L196.976,178.511L205.82,183.617Z"></path>
  <path id="IA" d="M391.555,178.511L400.399,183.617L400.399,193.83L409.244,198.936L409.244,209.149L418.088,214.255L418.088,224.468L409.244,229.574L400.399,224.468L391.555,229.574L382.71,224.468L382.71,214.255L373.866,209.149L373.866,198.936L365.021,193.83L365.021,183.617L373.866,178.511L382.71,183.617Z"></path>
  <path id="NY" d="M709.957,25.319L718.802,30.426L718.802,40.638L727.646,45.745L727.646,55.957L718.802,61.064L718.802,71.277L709.957,76.383L709.957,86.596L701.113,91.702L701.113,101.915L709.957,107.021L709.957,117.234L701.113,122.34L701.113,132.553L709.957,137.66L709.957,147.872L718.802,152.979L718.802,163.191L709.957,168.298L701.113,163.191L701.113,152.979L692.268,147.872L692.268,137.66L683.424,132.553L674.579,137.66L665.735,132.553L665.735,122.34L656.89,117.234L648.046,122.34L639.201,117.234L630.357,122.34L621.512,117.234L612.668,122.34L603.823,117.234L603.823,107.021L594.979,101.915L594.979,91.702L603.823,86.596L612.668,91.702L621.512,86.596L621.512,76.383L630.357,71.277L639.201,76.383L648.046,71.277L656.89,76.383L665.735,71.277L665.735,61.064L674.579,55.957L674.579,45.745L683.424,40.638L683.424,30.426L692.268,25.319L701.113,30.426Z"></path>
  <path id="MD" d="M621.512,178.511L630.357,183.617L630.357,193.83L639.201,198.936L639.201,209.149L648.046,214.255L648.046,224.468L656.89,229.574L656.89,239.787L648.046,244.894L639.201,239.787L630.357,244.894L621.512,239.787L621.512,229.574L612.668,224.468L612.668,214.255L603.823,209.149L594.979,214.255L594.979,224.468L586.134,229.574L577.29,224.468L577.29,214.255L586.134,209.149L586.134,198.936L594.979,193.83L594.979,183.617L603.823,178.511L612.668,183.617Z"></path>
  <path id="DE" d="M648.046,214.255L639.201,209.149L639.201,198.936L630.357,193.83L630.357,183.617L639.201,178.511L648.046,183.617L648.046,193.83L656.89,198.936L656.89,209.149L665.735,214.255L665.735,224.468L656.89,229.574L648.046,224.468Z"></path>
  <path id="NV" d="M285.421,270.426L276.576,275.532L267.732,270.426L267.732,260.213L276.576,255.106L276.576,244.894L267.732,239.787L267.732,229.574L276.576,224.468L276.576,214.255L267.732,209.149L267.732,198.936L276.576,193.83L285.421,198.936L285.421,209.149L294.265,214.255L294.265,224.468L285.421,229.574L285.421,239.787L294.265,244.894L294.265,255.106L303.11,260.213L303.11,270.426L294.265,275.532Z"></path>
  <path id="UT" d="M311.954,244.894L311.954,255.106L320.799,260.213L320.799,270.426L311.954,275.532L303.11,270.426L303.11,260.213L294.265,255.106L294.265,244.894L285.421,239.787L285.421,229.574L294.265,224.468L294.265,214.255L285.421,209.149L285.421,198.936L294.265,193.83L303.11,198.936L303.11,209.149L311.954,214.255L311.954,224.468L320.799,229.574L320.799,239.787Z"></path>
  <path id="CO" d="M329.643,193.83L338.488,198.936L338.488,209.149L347.332,214.255L347.332,224.468L338.488,229.574L338.488,239.787L347.332,244.894L347.332,255.106L356.177,260.213L356.177,270.426L347.332,275.532L338.488,270.426L329.643,275.532L320.799,270.426L320.799,260.213L311.954,255.106L311.954,244.894L320.799,239.787L320.799,229.574L311.954,224.468L311.954,214.255L303.11,209.149L303.11,198.936L311.954,193.83L320.799,198.936Z"></path>
  <path id="KS" d="M373.866,209.149L382.71,214.255L382.71,224.468L373.866,229.574L373.866,239.787L382.71,244.894L382.71,255.106L373.866,260.213L365.021,255.106L356.177,260.213L347.332,255.106L347.332,244.894L338.488,239.787L338.488,229.574L347.332,224.468L347.332,214.255L356.177,209.149L365.021,214.255Z"></path>
  <path id="DC" d="M603.823,239.787L594.979,244.894L586.134,239.787L586.134,229.574L594.979,224.468L594.979,214.255L603.823,209.149L612.668,214.255L612.668,224.468L621.512,229.574L621.512,239.787L612.668,244.894Z"></path>
  <path id="MO" d="M400.399,224.468L409.244,229.574L418.088,224.468L426.933,229.574L426.933,239.787L435.777,244.894L444.622,239.787L453.466,244.894L453.466,255.106L462.311,260.213L462.311,270.426L453.466,275.532L444.622,270.426L435.777,275.532L426.933,270.426L418.088,275.532L409.244,270.426L409.244,260.213L400.399,255.106L391.555,260.213L382.71,255.106L382.71,244.894L373.866,239.787L373.866,229.574L382.71,224.468L391.555,229.574Z"></path>
  <path id="KY" d="M524.223,224.468L533.067,229.574L533.067,239.787L524.223,244.894L524.223,255.106L533.067,260.213L533.067,270.426L524.223,275.532L515.378,270.426L506.534,275.532L497.689,270.426L488.845,275.532L480,270.426L471.155,275.532L462.311,270.426L462.311,260.213L471.155,255.106L480,260.213L488.845,255.106L488.845,244.894L497.689,239.787L497.689,229.574L506.534,224.468L515.378,229.574Z"></path>
  <path id="VA" d="M577.29,224.468L586.134,229.574L586.134,239.787L594.979,244.894L603.823,239.787L612.668,244.894L621.512,239.787L630.357,244.894L630.357,255.106L621.512,260.213L621.512,270.426L612.668,275.532L603.823,270.426L594.979,275.532L586.134,270.426L577.29,275.532L568.445,270.426L559.601,275.532L550.756,270.426L541.912,275.532L533.067,270.426L533.067,260.213L524.223,255.106L524.223,244.894L533.067,239.787L541.912,244.894L550.756,239.787L550.756,229.574L559.601,224.468L568.445,229.574Z"></path>
  <path id="OK" d="M382.71,255.106L391.555,260.213L400.399,255.106L409.244,260.213L409.244,270.426L400.399,275.532L400.399,285.745L391.555,290.851L391.555,301.064L382.71,306.17L373.866,301.064L373.866,290.851L365.021,285.745L356.177,290.851L347.332,285.745L347.332,275.532L356.177,270.426L356.177,260.213L365.021,255.106L373.866,260.213Z"></path>
  <path id="AZ" d="M303.11,270.426L311.954,275.532L320.799,270.426L329.643,275.532L329.643,285.745L320.799,290.851L320.799,301.064L311.954,306.17L311.954,316.383L303.11,321.489L303.11,331.702L294.265,336.809L285.421,331.702L276.576,336.809L267.732,331.702L267.732,321.489L258.887,316.383L258.887,306.17L267.732,301.064L267.732,290.851L276.576,285.745L276.576,275.532L285.421,270.426L294.265,275.532Z"></path>
  <path id="NM" d="M303.11,331.702L303.11,321.489L311.954,316.383L311.954,306.17L320.799,301.064L320.799,290.851L329.643,285.745L329.643,275.532L338.488,270.426L347.332,275.532L347.332,285.745L338.488,290.851L338.488,301.064L329.643,306.17L329.643,316.383L320.799,321.489L320.799,331.702L311.954,336.809L311.954,347.021L303.11,352.128L294.265,347.021L294.265,336.809Z"></path>
  <path id="AR" d="M426.933,270.426L435.777,275.532L435.777,285.745L444.622,290.851L444.622,301.064L453.466,306.17L453.466,316.383L444.622,321.489L435.777,316.383L426.933,321.489L418.088,316.383L418.088,306.17L409.244,301.064L409.244,290.851L400.399,285.745L400.399,275.532L409.244,270.426L418.088,275.532Z"></path>
  <path id="TN" d="M462.311,270.426L471.155,275.532L480,270.426L488.845,275.532L497.689,270.426L506.534,275.532L515.378,270.426L524.223,275.532L533.067,270.426L541.912,275.532L541.912,285.745L533.067,290.851L533.067,301.064L524.223,306.17L515.378,301.064L506.534,306.17L497.689,301.064L488.845,306.17L480,301.064L471.155,306.17L462.311,301.064L453.466,306.17L444.622,301.064L444.622,290.851L435.777,285.745L435.777,275.532L444.622,270.426L453.466,275.532Z"></path>
  <path id="NC" d="M568.445,270.426L577.29,275.532L586.134,270.426L594.979,275.532L603.823,270.426L612.668,275.532L621.512,270.426L630.357,275.532L630.357,285.745L621.512,290.851L621.512,301.064L630.357,306.17L630.357,316.383L621.512,321.489L612.668,316.383L603.823,321.489L594.979,316.383L586.134,321.489L577.29,316.383L568.445,321.489L559.601,316.383L550.756,321.489L541.912,316.383L541.912,306.17L533.067,301.064L533.067,290.851L541.912,285.745L541.912,275.532L550.756,270.426L559.601,275.532Z"></path>
  <path id="TX" d="M365.021,285.745L373.866,290.851L373.866,301.064L382.71,306.17L391.555,301.064L391.555,290.851L400.399,285.745L409.244,290.851L409.244,301.064L418.088,306.17L418.088,316.383L426.933,321.489L426.933,331.702L418.088,336.809L418.088,347.021L426.933,352.128L426.933,362.34L418.088,367.447L409.244,362.34L400.399,367.447L400.399,377.66L391.555,382.766L391.555,392.979L382.71,398.085L382.71,408.298L373.866,413.404L373.866,423.617L365.021,428.723L356.177,423.617L356.177,413.404L347.332,408.298L347.332,398.085L338.488,392.979L338.488,382.766L329.643,377.66L320.799,382.766L311.954,377.66L311.954,367.447L303.11,362.34L303.11,352.128L311.954,347.021L311.954,336.809L320.799,331.702L320.799,321.489L329.643,316.383L329.643,306.17L338.488,301.064L338.488,290.851L347.332,285.745L356.177,290.851Z"></path>
  <path id="MS" d="M480,301.064L488.845,306.17L488.845,316.383L480,321.489L480,331.702L488.845,336.809L488.845,347.021L480,352.128L480,362.34L471.155,367.447L462.311,362.34L462.311,352.128L453.466,347.021L453.466,336.809L462.311,331.702L462.311,321.489L453.466,316.383L453.466,306.17L462.311,301.064L471.155,306.17Z"></path>
  <path id="AL" d="M515.378,331.702L524.223,336.809L524.223,347.021L515.378,352.128L515.378,362.34L524.223,367.447L524.223,377.66L515.378,382.766L506.534,377.66L497.689,382.766L488.845,377.66L488.845,367.447L480,362.34L480,352.128L488.845,347.021L488.845,336.809L480,331.702L480,321.489L488.845,316.383L488.845,306.17L497.689,301.064L506.534,306.17L506.534,316.383L515.378,321.489Z"></path>
  <path id="GA" d="M533.067,301.064L541.912,306.17L541.912,316.383L550.756,321.489L559.601,316.383L568.445,321.489L568.445,331.702L577.29,336.809L577.29,347.021L586.134,352.128L586.134,362.34L594.979,367.447L594.979,377.66L586.134,382.766L577.29,377.66L568.445,382.766L559.601,377.66L550.756,382.766L541.912,377.66L533.067,382.766L524.223,377.66L524.223,367.447L515.378,362.34L515.378,352.128L524.223,347.021L524.223,336.809L515.378,331.702L515.378,321.489L506.534,316.383L506.534,306.17L515.378,301.064L524.223,306.17Z"></path>
  <path id="LA" d="M453.466,316.383L462.311,321.489L462.311,331.702L453.466,336.809L453.466,347.021L462.311,352.128L462.311,362.34L471.155,367.447L471.155,377.66L462.311,382.766L453.466,377.66L444.622,382.766L435.777,377.66L435.777,367.447L426.933,362.34L426.933,352.128L418.088,347.021L418.088,336.809L426.933,331.702L426.933,321.489L435.777,316.383L444.622,321.489Z"></path>
  <path id="SC" d="M594.979,316.383L603.823,321.489L612.668,316.383L621.512,321.489L630.357,316.383L639.201,321.489L639.201,331.702L630.357,336.809L630.357,347.021L621.512,352.128L621.512,362.34L612.668,367.447L603.823,362.34L594.979,367.447L586.134,362.34L586.134,352.128L577.29,347.021L577.29,336.809L568.445,331.702L568.445,321.489L577.29,316.383L586.134,321.489Z"></path>
  <path id="WV" d="M541.912,224.468L541.912,214.255L550.756,209.149L559.601,214.255L568.445,209.149L568.445,198.936L577.29,193.83L577.29,183.617L586.134,178.511L594.979,183.617L594.979,193.83L586.134,198.936L586.134,209.149L577.29,214.255L577.29,224.468L568.445,229.574L559.601,224.468L550.756,229.574L550.756,239.787L541.912,244.894L533.067,239.787L533.067,229.574Z"></path>
  <path id="AK" d="M170.442,408.298L161.597,413.404L152.753,408.298L152.753,398.085L161.597,392.979L161.597,382.766L170.442,377.66L179.286,382.766L179.286,392.979L188.131,398.085L188.131,408.298L179.286,413.404Z"></path>
  <text x="120" y="500" dy="-0.5em">FiveThirtyEight</text>
</svg>