<svg width="960" height="500" xmlns="http://www.w3.org/2000/svg">
  <path id="HI" d="M193.612,383.477L197.728,380.453L196.432,384.341L193.84,385.158L193.154,387.366L190.792,388.422ZM212.895,374.164L218.459,373.54L223.26,373.924L224.556,376.325L223.87,381.749L222.575,385.398L219.373,386.07L215.867,385.83L207.483,382.181L208.55,377.813ZM257.711,392.55L261.979,389.958L263.961,386.502L272.802,394.326L275.622,397.543L273.336,400.807L268.077,398.599L263.275,399.271ZM307.176,405.32L305.118,407.912L300.088,407.912L287.969,409.976L290.256,407.384L290.713,404.119L295.362,404.119L303.67,403.927L307.71,403.831ZM304.051,411.272L306.719,413.432L306.262,415.929L302.375,416.937L299.554,411.848ZM313.197,420.585L314.264,418.665L314.646,421.353L312.435,422.217ZM310.301,409.976L312.435,409.448L315.255,410.504L319.6,410.504L324.02,412.808L326.764,415.305L324.554,417.369L320.895,418.521L316.932,420.153L316.551,415.497L310.758,413.576ZM336.673,456.445L336.291,452.076L331.642,439.883L336.291,432.394L335.377,427.21L339.493,429.13L347.419,430.57L356.87,435.851L357.023,439.739L363.12,444.539L359.385,448.236L352.983,453.372L349.248,454.236L345.361,456.925L341.703,460.333Z"></path>
  <path id="MI" d="M456.792,74.086L451.99,70.39L466.243,67.318L468.987,66.454L477.294,59.637L480.877,57.189L484.611,56.853L487.431,58.053L484.764,58.149L481.105,61.701L477.752,67.414L484.078,66.742L488.574,69.238L493.91,69.238L497.949,67.51L506.714,66.982L507.934,70.198L518.757,69.67L527.75,77.303L524.321,77.543L522.415,77.543L514.87,77.831L506.791,76.535L499.474,77.639L493.529,79.367L490.251,80.327L485.831,87.192L481.105,94.728L475.541,80.807ZM492.538,155.791L496.425,148.206L497.873,143.453L499.169,137.213L497.873,127.516L495.282,121.611L494.672,115.995L495.205,112.154L497.644,105.242L500.617,100.537L501.227,101.401L502.065,104.089L503.894,105.338L505.876,102.553L507.781,94.152L509.763,92.04L511.211,88.584L513.879,84.935L515.937,84.743L515.937,82.775L517.766,81.191L519.976,81.575L526.607,83.543L533.009,86.424L535.372,92.856L535.144,99.769L533.619,104.713L530.647,107.93L529.351,111.818L531.028,113.546L533.848,114.41L534.915,112.874L537.278,110.714L538.345,106.01L542.003,102.745L545.662,101.209L548.939,104.233L551.683,117.195L552.75,124.731L553.436,132.028L550.387,132.7L549.777,137.021L547.796,142.829L544.137,151.614L542.384,155.695Z"></path>
  <path id="ME" d="M804.116,11.152L811.128,10L815.168,11.344L816.921,28.77L822.866,36.115L822.484,41.779L816.082,45.284L811.662,46.676L809.223,53.396L800.458,56.997L792.15,71.11L791.693,28.002L797.79,25.602L800.229,21.617Z"></path>
  <path id="NE" d="M410.756,234.23L410.756,242.583L364.721,242.247L364.568,233.366L350.239,233.318L350.011,216.277L399.095,216.469Z"></path>
  <path id="AL" d="M479.581,281.803L513.65,281.803L519.824,342.769L501.074,342.433L501.227,349.49L479.733,349.394L479.657,342.961Z"></path>
  <path id="AZ" d="M237.894,319.487L239.8,308.302L241.705,300.381L242.544,294.764L238.885,288.764L237.589,286.94L244.22,287.036L296.887,286.796L297.192,338.545L274.86,338.785L236.903,331.824L236.751,328.368L239.038,328.368L240.714,326.016Z"></path>
  <path id="AR" d="M452.676,308.974L414.719,308.974L414.719,301.965L411.442,301.773L411.671,277.963L410.68,270.282L454.353,269.514L451.609,276.091L458.697,276.091L457.173,281.851L451.761,300.429Z"></path>
  <path id="CA" d="M103.37,122.187L168.307,122.763L167.926,193.09L205.161,240.672L239.038,288.908L242.544,294.764L241.705,300.381L239.8,308.302L237.894,319.487L240.791,326.016L239.038,328.416L194.984,327.648L191.097,314.11L177.606,298.653L155.198,293.996L153.216,284.731L126.235,235.431L126.083,231.014L122.424,228.806L117.47,219.829L111.906,210.132L104.894,184.977L103.141,166.784L101.236,159.103L103.141,152.478Z"></path>
  <path id="CO" d="M324.325,286.748L269.677,286.844L269.448,243.207L324.173,243.351Z"></path>
  <path id="CT" d="M752.669,104.329L799.238,104.473L799.391,134.284L794.36,142.445L766.846,144.989L750.611,147.39L748.172,142.781L754.803,139.181L752.364,135.341Z"></path>
  <path id="DE" d="M692.914,175.953L694.82,174.752L697.792,174.032L701.679,174.032L704.728,175.521L705.871,176.145L702.594,178.929L698.25,183.825L698.936,189.778L701.756,198.275L702.67,207.732L706.024,216.085L710.292,219.781L711.359,232.406L691.619,231.686L689.942,178.401Z"></path>
  <path id="DC" d="M625.614,203.267L645.431,191.986L661.894,220.357L636.361,235.719L637.428,224.245L633.922,213.3Z"></path>
  <path id="FL" d="M592.764,348.482L592.612,355.971L595.356,363.315L608.084,384.197L620.889,403.495L620.889,409.688L630.492,423.993L638.647,439.835L640.553,448.716L642.534,463.021L642.534,475.407L639.333,487.6L635.675,489.808L622.642,490L620.507,488.464L618.907,478.479L612.352,468.83L605.035,468.446L595.356,454.14L589.944,449.916L582.246,441.803L570.966,423.993L562.506,410.072L561.744,393.462L559,386.886L554.732,383.429L547.796,370.276L541.622,361.395L536.592,359.427L533.924,360.627L526.531,366.388L523.482,361.779L515.708,356.739L508.01,355.587L502.217,354.434L501.15,349.442L501.074,342.433L519.824,342.769L526.15,348.386Z"></path>
  <path id="GA" d="M513.65,281.803L561.744,281.947L560.295,287.66L568.908,298.653L584.838,317.183L597.947,336.577L592.764,348.482L526.15,348.386L519.824,342.769Z"></path>
  <path id="ID" d="M179.054,80.567L179.664,40.627L186.676,40.771L186.752,45.092L190.411,50.084L193.536,52.004L193.536,55.653L194.831,55.125L198.947,63.429L204.206,63.237L203.825,96.121L179.283,95.833L179.207,89.016L179.969,86.04Z"></path>
  <path id="IL" d="M441.396,216.325L429.887,193.282L424.628,183.825L421.503,177.825L420.207,169.904L422.113,162.367L427.753,157.327L430.42,151.182L429.887,143.069L425.009,133.756L476.989,133.948L476.989,138.605L477.218,144.221L477.904,149.886L478.514,153.342L479.276,155.695L479.962,157.039L480.419,157.855L481.562,158.767L481.944,223.765L478.514,237.447L477.447,242.823L467.005,243.207L465.557,249.16L454.886,237.735L455.115,233.894L451.838,232.934Z"></path>
  <path id="IN" d="M481.944,223.765L481.639,158.767L484.459,159.775L486.974,159.919L489.87,158.431L492.538,155.791L518.985,155.695L519.138,159.103L518.833,216.901L517.766,222.277L507.553,225.35L501.227,232.646L478.666,237.447L478.666,237.639Z"></path>
  <path id="IA" d="M425.009,133.756L429.811,143.021L430.42,151.182L427.753,157.375L422.113,162.367L420.817,167.408L380.117,167.024L377.525,141.677L377.983,133.324Z"></path>
  <path id="KS" d="M411.29,242.103L411.213,268.746L354.584,268.746L354.584,241.719Z"></path>
  <path id="KY" d="M464.109,255.065L467.005,243.207L477.447,242.823L478.514,237.447L501.379,232.454L507.629,225.206L517.69,222.277L518.985,216.325L528.97,222.085L538.802,222.805L546.576,227.654L553.741,233.222L553.741,238.791L555.799,241.095L554.046,242.967L548.482,248.968L538.954,254.872Z"></path>
  <path id="LA" d="M466.09,342.865L467.081,345.698L466.243,349.154L468.91,349.538L468.91,350.546L469.063,351.41L466.471,354.146L468.529,355.251L471.121,355.923L471.197,356.499L470.892,356.787L466.624,355.779L462.965,355.491L462.813,356.211L464.413,359.331L463.728,360.099L460.603,357.939L457.249,356.739L455.877,359.715L451.533,358.467L446.579,355.059L440.938,353.522L436.823,354.626L435.984,356.931L426.152,355.251L413.957,357.507L416.625,338.737L414.948,319.391L414.719,308.974L452.676,308.974L453.667,318.767L447.493,336.385L466.243,336.001Z"></path>
  <path id="MD" d="M689.942,178.353L691.619,231.686L711.359,232.406L709.301,245.992L697.564,261.929L697.716,249.88L687.731,238.407L679.805,230.438L677.595,221.509L681.253,217.285L677.518,210.948L675.079,197.795L677.366,190.354L681.253,186.466L683.463,182.961L681.101,182.385L673.86,187.234L670.735,191.506L668.144,198.179L669.82,211.908L667.153,224.677L665.705,233.462L665.781,244.791L661.513,240.471L658.159,236.391L654.501,231.59L650.766,227.078L661.894,220.357L645.431,191.938L635.446,197.699L631.788,191.602L629.425,187.954L626.452,186.034L621.498,186.082L613.495,194.098L613.648,178.785Z"></path>
  <path id="MA" d="M833.155,125.116L830.945,120.171L820.503,115.227L818.902,104.521L752.669,104.329L752.745,77.399L812.957,77.687L814.177,73.894L820.731,69.478L829.801,68.23L836.051,77.399L839.633,79.127L831.631,85.8L833.307,90.648L839.252,92.28L842.53,108.554L849.084,112.874L858.688,109.898L856.554,104.329L854.344,99.193L858.383,103.177L861.051,111.338L848.627,120.075L845.731,116.139Z"></path>
  <path id="MN" d="M440.329,133.804L394.522,133.516L394.217,63.477L412.585,63.669L412.738,60.597L413.957,61.173L414.491,63.669L429.201,67.174L443.072,66.79L435.756,75.047L431.259,86.04L427.219,89.736L425.314,104.041L436.518,115.419Z"></path>
  <path id="MS" d="M479.581,281.803L479.657,342.961L466.09,342.865L466.243,336.001L447.493,336.385L453.667,318.767L451.761,300.429L457.173,281.755Z"></path>
  <path id="MO" d="M410.68,270.282L410.756,234.23L399.019,216.517L441.396,216.325L451.838,232.934L455.115,233.894L454.886,237.735L465.557,249.16L458.697,276.091L451.609,276.091L454.353,269.514Z"></path>
  <path id="MT" d="M204.206,62.325L204.206,63.237L199.023,63.381L194.755,55.173L193.612,55.749L193.383,52.052L190.487,50.18L186.752,45.188L186.524,40.771L227.452,40.771L227.376,62.661Z"></path>
  <path id="NV" d="M197.804,218.341L236.751,218.677L237.818,287.228L197.651,232.694Z"></path>
  <path id="NH" d="M767.76,49.172L775.382,43.267L779.345,28.002L781.556,27.81L791.693,27.906L792.378,71.302L791.464,75.143L786.129,77.495L763.111,77.351Z"></path>
  <path id="NJ" d="M722.944,132.268L744.666,146.43L741.389,155.311L739.026,156.511L737.73,160.831L738.264,162.895L741.922,166.688L755.565,168.224L762.73,171.248L761.282,208.74L759.986,215.221L743.447,243.399L740.474,243.399L742.38,230.054L726.755,227.99L710.673,215.221L708.768,204.995L712.96,196.067L724.164,182.769L715.856,173.12L709.53,164.959L707.853,158.095L709.377,149.406Z"></path>
  <path id="NM" d="M324.325,286.748L324.325,334.896L305.652,335.281L305.652,336.097L301.155,336.193L301.155,338.449L297.268,338.497L296.811,286.844Z"></path>
  <path id="NY" d="M738.264,162.895L737.73,160.831L739.026,156.511L741.389,155.311L744.666,146.43L722.944,132.268L720.505,124.011L629.654,124.011L629.882,114.458L648.937,97.705L643.525,84.311L653.662,81.671L669.058,80.423L677.061,84.119L693.753,84.311L702.823,78.983L705.49,66.214L703.585,55.125L711.511,51.188L716.389,44.851L727.67,35.395L752.364,35.587L752.364,43.891L752.745,77.399L752.669,104.329L752.288,135.437L754.803,139.037L748.248,142.637L750.687,147.39L746.724,153.87L754.651,150.99L780.336,153.246L794.055,151.47L793.293,155.695L797.104,161.167L805.945,159.487L805.64,160.543L790.625,164.767L767.913,163.615L751.45,161.791L747.258,161.647L742.989,160.111Z"></path>
  <path id="NC" d="M561.82,281.467L561.744,281.947L545.966,281.803L554.732,273.402L577.292,260.297L581.027,254.92L672.259,254.92L679.424,266.634L668.144,289.628L659.302,291.02L646.345,308.974L636.056,309.886L610.752,280.699L591.392,280.891L588.115,277.819L568.756,278.011Z"></path>
  <path id="ND" d="M394.217,63.477L394.293,84.983L358.547,84.743L358.547,63.189Z"></path>
  <path id="OH" d="M518.985,216.325L519.062,159.055L519.062,155.743L542.384,155.743L556.408,160.399L571.118,159.679L575.158,156.271L593.831,149.406L593.298,193.954L587.81,198.947L584.533,203.171L576.225,207.972L576.149,199.763L574.167,211.524L568.984,216.229L565.25,216.997L560.219,223.429L559.381,228.23L557.475,232.31L553.741,233.222L546.424,227.558L538.573,222.709L528.894,222.085Z"></path>
  <path id="OK" d="M411.442,301.773L381.87,300.429L368.76,298.125L361.443,294.62L360.605,275.131L324.325,275.035L324.401,269.226L410.68,269.226L410.68,270.282L411.671,277.963Z"></path>
  <path id="OR" d="M151.311,85.08L153.445,88.008L150.473,98.809L151.616,102.121L151.311,122.667L103.37,122.187L102.608,117.147L103.599,110.618L103.751,79.655L107.486,79.607L110.077,82.487L111.144,84.215L117.623,85.08L131.571,84.119Z"></path>
  <path id="PA" d="M722.944,132.268L709.377,149.406L707.853,158.095L709.53,164.959L713.112,169.52L705.795,176.193L704.728,175.521L701.679,174.08L697.792,174.032L694.744,174.752L692.914,175.953L689.942,178.353L616.392,178.785L616.239,121.659L629.882,114.458L629.654,124.011L720.505,124.011Z"></path>
  <path id="RI" d="M833.155,125.116L832.24,135.869L817.302,140.429L794.36,142.445L799.391,134.284L799.238,104.473L818.902,104.569L820.503,115.227L830.945,120.171Z"></path>
  <path id="SC" d="M561.82,281.467L568.756,278.011L588.115,277.819L591.392,280.891L610.752,280.699L636.056,309.886L613.648,325.728L605.493,327.312L597.947,336.577L584.838,317.231L568.984,298.701L560.295,287.66Z"></path>
  <path id="SD" d="M394.369,106.922L358.623,106.682L358.623,84.839L394.293,85.032Z"></path>
  <path id="TN" d="M464.109,255.065L581.027,254.872L577.292,260.297L554.732,273.402L545.966,281.803L457.249,281.755Z"></path>
  <path id="TX" d="M413.957,357.507L406.259,364.611L395.055,378.149L384.766,381.605L374.324,390.678L368.379,402.871L374.172,416.793L360.605,413.48L353.288,407.528L346.124,392.79L340.179,380.837L332.404,373.876L329.356,367.3L324.706,366.148L319.676,367.108L315.408,370.036L310.225,374.068L306.109,372.724L300.545,372.532L294.981,368.356L294.524,360.291L291.094,353.378L283.32,346.418L274.784,338.881L301.155,338.449L301.155,336.193L305.652,336.097L305.652,335.233L324.325,334.896L324.325,275.035L360.605,275.131L361.443,294.62L368.76,298.125L381.87,300.429L411.442,301.773L414.719,301.965L414.719,308.974L414.948,319.391L416.625,338.737Z"></path>
  <path id="UT" d="M237.056,236.391L256.72,236.439L256.873,243.111L269.296,243.255L269.601,286.892L237.818,286.94Z"></path>
  <path id="VT" d="M767.76,49.172L763.111,77.351L752.745,77.399L752.288,30.162L778.735,30.162L775.382,43.219Z"></path>
  <path id="VA" d="M605.797,207.924L610.294,197.987L613.419,194.098L621.498,186.082L626.452,186.034L629.425,187.954L631.788,191.602L635.446,197.699L625.614,203.267L633.922,213.3L637.428,224.245L636.361,235.719L650.842,227.078L654.424,231.494L658.235,236.439L661.513,240.471L665.781,244.887L669.439,248.296L669.363,248.344L672.259,254.92L605.607,253.772L538.954,254.92L548.482,248.968L554.046,242.967L555.799,241.143L559.228,245.32L567.917,251.032L575.082,250.12L583.085,245.368L582.703,241.815L587.124,235.335L589.715,227.03L595.279,228.95L597.337,219.301L600.234,219.877L602.368,212.292L609.303,216.949L610.752,212.868L608.541,209.364Z"></path>
  <path id="WA" d="M151.311,85.08L131.571,84.119L117.623,85.08L111.144,84.215L110.077,82.487L107.486,79.607L103.751,79.655L103.37,69.19L98.949,54.308L102.074,56.805L110.153,59.541L107.257,64.341L109.544,68.806L113.659,68.23L117.47,59.349L117.928,48.5L114.574,40.579L179.74,40.579L179.054,80.567L179.893,86.088Z"></path>
  <path id="WV" d="M582.703,241.815L583.085,245.416L575.082,250.12L567.841,250.984L559.228,245.272L553.817,238.743L553.741,233.27L557.475,232.31L559.381,228.23L560.219,223.429L565.25,216.997L568.984,216.229L574.091,211.524L576.149,199.763L576.225,207.972L589.411,208.068L589.487,214.212L593.374,211.86L596.194,208.596L600.081,209.604L602.825,207.732L605.797,207.924L608.541,209.364L610.752,212.868L609.303,216.949L602.368,212.292L600.234,219.877L597.337,219.301L595.279,228.95L589.715,227.03L587.124,235.335Z"></path>
  <path id="WI" d="M476.989,133.948L440.329,133.804L436.518,115.419L425.314,104.041L427.219,89.736L431.259,86.04L435.756,75.047L451.99,70.39L456.792,74.086L475.541,80.855L481.181,94.776L477.447,104.425L483.315,97.273L483.087,99.769L480.8,103.657L477.294,117.579Z"></path>
  <path id="WY" d="M204.206,62.325L235.913,62.757L235.989,88.104L203.977,87.96Z"></path>
  <path id="AK" d="M157.256,321.551L157.256,341.473L156.875,343.345L158.247,345.074L159.695,345.17L160.991,344.833L166.631,350.594L169.451,351.458L171.356,355.443L169.07,357.267L163.125,351.458L159.009,346.898L155.808,344.065L153.826,343.201L151.006,342.769L146.433,344.305L141.022,347.138L133.933,351.218L127.379,353.81L119.604,355.107L115.717,354.914L122.653,354.05L130.199,351.65L134.543,348.722L135.763,345.938L133.4,345.362L131.647,344.401L133.171,341.137L131.723,341.137L129.589,339.841L128.827,336.961L130.199,333.36L133.019,332.592L134.238,332.304L135,329.568L132.638,329.904L130.427,329.232L129.36,327.312L130.122,325.92L132.714,324.719L132.714,326.448L134.314,326.208L131.875,320.063L134.314,319.823L136.067,317.759L138.887,316.895L141.936,315.407L146.052,317.135L149.024,317.807L152.759,319.247Z"></path>
  <text x="120" y="500" dy="-0.5em">Daily Kos</text>
</svg>
