<svg width="960" height="500" xmlns="http://www.w3.org/2000/svg">
  <path id="HI" d="M128.434,395.401L156.463,395.401L156.463,423.431L128.434,423.431Z"></path>
  <path id="MI" d="M483.303,126.121L539.362,126.121L539.362,182.179L483.303,182.179Z"></path>
  <path id="ME" d="M801.535,26.017L815.55,26.017L815.55,40.031L801.535,40.031ZM801.535,10L815.55,10L815.55,24.015L801.535,24.015ZM817.552,10L831.566,10L831.566,24.015L817.552,24.015ZM817.552,26.017L831.566,26.017L831.566,40.031L817.552,40.031Z"></path>
  <path id="NE" d="M342.657,214.213L356.672,214.213L356.672,228.227L342.657,228.227ZM358.674,230.229L372.688,230.229L372.688,244.244L358.674,244.244ZM358.674,214.213L372.688,214.213L372.688,228.227L358.674,228.227ZM374.69,214.213L388.705,214.213L388.705,228.227L374.69,228.227ZM374.69,230.229L388.705,230.229L388.705,244.244L374.69,244.244Z"></path>
  <path id="AL" d="M515.837,352.857L557.881,352.857L557.881,394.901L515.837,394.901Z"></path>
  <path id="AZ" d="M264.576,300.302L310.624,300.302L310.624,346.35L264.576,346.35Z"></path>
  <path id="AR" d="M431.75,313.816L465.785,313.816L465.785,347.852L431.75,347.852Z"></path>
  <path id="CA" d="M128.434,225.725L232.542,225.725L232.542,329.833L128.434,329.833Z"></path>
  <path id="CO" d="M315.629,253.253L357.673,253.253L357.673,295.297L315.629,295.297Z"></path>
  <path id="CT" d="M752.083,129.124L789.122,129.124L789.122,166.163L752.083,166.163Z"></path>
  <path id="DE" d="M698.027,216.215L722.052,216.215L722.052,240.24L698.027,240.24Z"></path>
  <path id="DC" d="M668.997,216.215L693.022,216.215L693.022,240.24L668.997,240.24Z"></path>
  <path id="FL" d="M587.912,413.921L663.992,413.921L663.992,490L587.912,490Z"></path>
  <path id="GA" d="M562.886,352.857L618.945,352.857L618.945,408.916L562.886,408.916Z"></path>
  <path id="ID" d="M245.055,192.69L273.084,192.69L273.084,220.719L245.055,220.719Z"></path>
  <path id="IL" d="M393.71,187.185L456.776,187.185L456.776,250.25L393.71,250.25Z"></path>
  <path id="IN" d="M461.781,187.185L507.829,187.185L507.829,233.233L461.781,233.233Z"></path>
  <path id="IA" d="M354.669,175.172L388.705,175.172L388.705,209.208L354.669,209.208Z"></path>
  <path id="KS" d="M379.195,255.255L413.23,255.255L413.23,289.291L379.195,289.291Z"></path>
  <path id="KY" d="M499.32,256.757L539.362,256.757L539.362,296.799L499.32,296.799Z"></path>
  <path id="LA" d="M431.75,352.857L471.791,352.857L471.791,392.899L431.75,392.899Z"></path>
  <path id="MD" d="M645.973,167.164L690.019,167.164L690.019,211.21L645.973,211.21Z"></path>
  <path id="MA" d="M752.083,78.071L798.131,78.071L798.131,124.119L752.083,124.119Z"></path>
  <path id="MN" d="M344.659,126.121L388.705,126.121L388.705,170.167L344.659,170.167Z"></path>
  <path id="MS" d="M476.797,352.857L510.832,352.857L510.832,386.893L476.797,386.893Z"></path>
  <path id="MO" d="M431.75,264.765L475.796,264.765L475.796,308.811L431.75,308.811Z"></path>
  <path id="MT" d="M261.572,126.121L285.597,126.121L285.597,150.146L261.572,150.146Z"></path>
  <path id="NV" d="M237.547,261.262L271.583,261.262L271.583,295.297L237.547,295.297Z"></path>
  <path id="NH" d="M781.114,45.036L809.143,45.036L809.143,73.066L781.114,73.066Z"></path>
  <path id="NJ" d="M695.024,159.155L747.078,159.155L747.078,211.21L695.024,211.21Z"></path>
  <path id="NM" d="M315.629,300.302L346.661,300.302L346.661,331.335L315.629,331.335Z"></path>
  <path id="NY" d="M670.999,78.071L747.078,78.071L747.078,154.15L670.999,154.15Z"></path>
  <path id="NC" d="M609.935,271.272L663.992,271.272L663.992,325.328L609.935,325.328Z"></path>
  <path id="ND" d="M315.629,126.121L339.654,126.121L339.654,150.146L315.629,150.146Z"></path>
  <path id="OH" d="M512.834,187.185L572.897,187.185L572.897,247.247L512.834,247.247Z"></path>
  <path id="OK" d="M376.192,294.296L413.23,294.296L413.23,331.335L376.192,331.335Z"></path>
  <path id="OR" d="M194.503,183.681L231.541,183.681L231.541,220.719L194.503,220.719Z"></path>
  <path id="PA" d="M577.902,148.144L640.968,148.144L640.968,211.21L577.902,211.21Z"></path>
  <path id="RI" d="M794.127,129.124L822.156,129.124L822.156,157.153L794.127,157.153Z"></path>
  <path id="SC" d="M562.886,305.808L604.93,305.808L604.93,347.852L562.886,347.852Z"></path>
  <path id="SD" d="M315.629,155.151L339.654,155.151L339.654,179.176L315.629,179.176Z"></path>
  <path id="TN" d="M493.314,301.804L539.362,301.804L539.362,347.852L493.314,347.852Z"></path>
  <path id="TX" d="M339.654,336.34L426.745,336.34L426.745,423.431L339.654,423.431Z"></path>
  <path id="UT" d="M276.588,261.262L310.624,261.262L310.624,295.297L276.588,295.297Z"></path>
  <path id="VT" d="M752.083,49.041L776.108,49.041L776.108,73.066L752.083,73.066Z"></path>
  <path id="VA" d="M613.94,216.215L663.992,216.215L663.992,266.267L613.94,266.267Z"></path>
  <path id="WA" d="M183.491,126.121L231.541,126.121L231.541,174.171L183.491,174.171Z"></path>
  <path id="WV" d="M577.902,216.215L608.934,216.215L608.934,247.247L577.902,247.247Z"></path>
  <path id="WI" d="M393.71,138.133L437.756,138.133L437.756,182.179L393.71,182.179Z"></path>
  <path id="WY" d="M286.599,196.694L310.624,196.694L310.624,220.719L286.599,220.719Z"></path>
  <path id="AK" d="M128.434,10L152.459,10L152.459,34.025L128.434,34.025Z"></path>
  <text x="120" y="500" dy="-0.5em">NPR</text>
</svg>