<svg width="960" height="500" xmlns="http://www.w3.org/2000/svg">
  <path id="HI" d="M223.917,414.211L236.721,401.579L249.525,414.211L262.329,401.579L275.133,414.211L287.937,401.579L313.546,426.842L300.742,439.474L275.133,414.212L262.329,426.842L249.525,414.212L236.721,426.842Z"></path>
  <path id="MI" d="M467.196,60.526L454.392,73.158L441.587,60.526L454.392,47.895L467.196,60.526L492.804,35.263L556.825,98.421L531.217,123.684L518.413,111.053L505.608,123.684L492.804,111.053L480,123.684L454.392,98.421L480,73.158Z"></path>
  <path id="ME" d="M800.104,35.263L825.713,10L851.321,35.263L825.713,60.526Z"></path>
  <path id="NE" d="M339.154,161.579L364.762,136.316L390.371,161.579L377.567,174.211L390.371,186.842L377.567,199.474Z"></path>
  <path id="MT" d="M287.937,161.579L326.35,123.684L339.154,136.316L300.742,174.211Z"></path>
  <path id="ND" d="M326.35,98.421L339.154,85.789L351.958,98.421L364.762,85.789L377.567,98.421L351.958,123.684Z"></path>
  <path id="SD" d="M326.35,123.684L339.154,111.053L351.958,123.684L364.762,111.053L377.567,123.684L351.958,148.947Z"></path>
  <path id="WY" d="M300.742,174.211L339.154,136.316L351.958,148.947L313.546,186.842Z"></path>
  <path id="ID" d="M262.329,161.579L287.937,136.316L300.742,148.947L287.937,161.579L313.546,186.842L300.742,199.474Z"></path>
  <path id="VT" d="M710.475,47.895L736.083,22.632L761.692,47.895L748.888,60.526L736.083,47.895L723.279,60.526Z"></path>
  <path id="NH" d="M736.083,22.632L748.888,10L774.496,35.263L787.3,22.632L800.104,35.263L774.496,60.526Z"></path>
  <path id="IA" d="M390.371,186.842L415.979,161.579L441.587,186.842L428.783,199.474L441.587,212.105L428.783,224.737L415.979,212.105L403.175,224.737L390.371,212.105L403.175,199.474Z"></path>
  <path id="MA" d="M710.475,73.158L736.083,47.895L748.888,60.526L761.692,47.895L774.496,60.526L800.104,35.263L812.908,47.895L800.104,60.526L812.908,73.158L787.3,98.421L774.496,85.789L761.692,98.421L748.888,85.789L736.083,98.421Z"></path>
  <path id="NY" d="M595.238,85.789L659.258,22.632L672.063,35.263L697.671,10L710.475,22.632L723.279,10L736.083,22.632L710.475,47.895L723.279,60.526L710.475,73.158L736.083,98.421L723.279,111.053L761.692,148.947L748.888,161.579L684.867,98.421L672.063,111.053L659.258,98.421L646.454,111.053L620.846,85.789L608.042,98.421Z"></path>
  <path id="PA" d="M582.433,98.421L595.238,85.789L608.042,98.421L620.846,85.789L646.454,111.053L659.258,98.421L672.063,111.053L684.867,98.421L710.475,123.684L659.258,174.211L633.65,148.947L620.846,161.579L608.042,148.947L595.238,161.579L582.433,148.947L595.238,136.316L582.433,123.684L595.238,111.053Z"></path>
  <path id="CT" d="M723.279,111.053L748.888,85.789L761.692,98.421L774.496,85.789L800.104,111.053L787.3,123.684L774.496,111.053L761.692,123.684L774.496,136.316L761.692,148.947Z"></path>
  <path id="RI" d="M787.3,98.421L812.908,73.158L838.517,98.421L812.908,123.684Z"></path>
  <path id="NJ" d="M659.258,174.211L710.475,123.684L736.083,148.947L723.279,161.579L748.888,186.842L710.475,224.737Z"></path>
  <path id="IN" d="M480,123.684L492.804,111.053L505.608,123.684L518.413,111.053L531.217,123.684L518.413,136.316L531.217,148.947L518.413,161.579L544.021,186.842L518.413,212.105L480,174.211L492.804,161.579L480,148.947L492.804,136.316Z"></path>
  <path id="OH" d="M518.413,136.316L556.825,98.421L569.629,111.053L582.433,98.421L595.238,111.053L582.433,123.684L595.238,136.316L582.433,148.947L595.238,161.579L608.042,148.947L620.846,161.579L608.042,174.211L620.846,186.842L608.042,199.474L595.238,186.842L582.433,199.474L556.825,174.211L544.021,186.842L518.413,161.579L531.217,148.947Z"></path>
  <path id="IL" d="M403.175,148.947L441.587,111.053L454.392,123.684L467.196,111.053L492.804,136.316L480,148.947L492.804,161.579L480,174.211L531.217,224.737L518.413,237.368L480,199.474L467.196,212.105L454.392,199.474L441.587,212.105L428.783,199.474L441.587,186.842Z"></path>
  <path id="DE" d="M684.867,224.737L697.671,212.105L723.279,237.368L697.671,262.632L684.867,250L697.671,237.368Z"></path>
  <path id="WV" d="M608.042,174.211L633.65,148.947L659.258,174.211L620.846,212.105L608.042,199.474L620.846,186.842Z"></path>
  <path id="MD" d="M608.042,224.737L659.258,174.211L697.671,212.105L684.867,224.737L697.671,237.368L684.867,250L659.258,224.737L646.454,237.368L633.65,224.737L620.846,237.368Z"></path>
  <path id="CO" d="M300.742,199.474L339.154,161.579L364.762,186.842L339.154,212.105L351.958,224.737L326.35,250L300.742,224.737L313.546,212.105Z"></path>
  <path id="KY" d="M518.413,212.105L556.825,174.211L582.433,199.474L595.238,186.842L608.042,199.474L569.629,237.368L544.021,212.105L531.217,224.737Z"></path>
  <path id="KS" d="M339.154,212.105L364.762,186.842L377.567,199.474L390.371,186.842L403.175,199.474L390.371,212.105L403.175,224.737L390.371,237.368L377.567,224.737L364.762,237.368Z"></path>
  <path id="VA" d="M556.825,250L608.042,199.474L620.846,212.105L608.042,224.737L646.454,262.632L659.258,250L684.867,275.263L659.258,300.526L620.846,262.632L608.042,275.263L582.433,250L569.629,262.632Z"></path>
  <path id="MO" d="M415.979,237.368L454.392,199.474L467.196,212.105L480,199.474L518.413,237.368L505.608,250L492.804,237.368L467.196,262.632L441.587,237.368L428.783,250Z"></path>
  <path id="AZ" d="M211.112,237.368L249.525,199.474L287.937,237.368L275.133,250L287.937,262.632L262.329,287.895Z"></path>
  <path id="OK" d="M326.35,250L351.958,224.737L364.762,237.368L377.567,224.737L390.371,237.368L415.979,212.105L428.783,224.737L390.371,262.632L377.567,250L364.762,262.632L351.958,250L339.154,262.632Z"></path>
  <path id="NC" d="M518.413,287.895L544.021,262.632L556.825,275.263L582.433,250L608.042,275.263L620.846,262.632L659.258,300.526L646.454,313.158L633.65,300.526L620.846,313.158L608.042,300.526L595.238,313.158L582.433,300.526L569.629,313.158L556.825,300.526L544.021,313.158Z"></path>
  <path id="TN" d="M467.196,262.632L492.804,237.368L505.608,250L544.021,212.105L569.629,237.368L556.825,250L569.629,262.632L556.825,275.263L544.021,262.632L518.413,287.895L492.804,262.632L480,275.263Z"></path>
  <path id="AL" d="M415.979,338.421L441.587,313.158L428.783,300.526L467.196,262.632L480,275.263L467.196,287.895L480,300.526L454.392,325.789L467.196,338.421L441.587,363.684Z"></path>
  <path id="MS" d="M415.979,363.684L390.371,338.421L403.175,325.789L390.371,313.158L415.979,287.895L441.587,313.158L415.979,338.421L428.783,351.053Z"></path>
  <path id="GA" d="M492.804,262.632L556.825,325.789L531.217,351.053L518.413,338.421L492.804,363.684L454.392,325.789L480,300.526L467.196,287.895Z"></path>
  <path id="SC" d="M544.021,313.158L556.825,300.526L569.629,313.158L582.433,300.526L595.238,313.158L608.042,300.526L633.65,325.789L608.042,351.053L595.238,338.421L582.433,351.053L569.629,338.421L556.825,351.053L544.021,338.421L556.825,325.789Z"></path>
  <path id="AR" d="M403.175,275.263L441.587,237.368L467.196,262.632L428.783,300.526Z"></path>
  <path id="LA" d="M351.958,325.789L403.175,275.263L415.979,287.895L390.371,313.158L403.175,325.789L390.371,338.421L415.979,363.684L403.175,376.316Z"></path>
  <path id="FL" d="M441.587,363.684L467.196,338.421L492.804,363.684L518.413,338.421L531.217,351.053L544.021,338.421L556.825,351.053L569.629,338.421L582.433,351.053L595.238,338.421L608.042,351.053L569.629,388.947L595.238,414.211L582.433,426.842L595.238,439.474L582.433,452.105L595.238,464.737L569.629,490L544.021,464.737L556.825,452.105L531.217,426.842L544.021,414.211L505.608,376.316L492.804,388.947L467.196,363.684L454.392,376.316Z"></path>
  <path id="TX" d="M364.762,388.947L377.567,401.579L364.762,414.211L313.546,363.684L300.742,376.316L262.329,338.421L300.742,300.526L287.937,287.895L326.35,250L339.154,262.632L351.958,250L364.762,262.632L377.567,250L390.371,262.632L415.979,237.368L428.783,250L351.958,325.789L390.371,363.684Z"></path>
  <path id="NM" d="M275.133,250L300.742,224.737L326.35,250L287.937,287.895L275.133,275.263L287.937,262.632Z"></path>
  <path id="UT" d="M249.525,199.474L275.133,174.211L313.546,212.105L287.937,237.368Z"></path>
  <path id="NV" d="M211.112,186.842L249.525,148.947L275.133,174.211L236.721,212.105Z"></path>
  <path id="OR" d="M172.7,148.947L211.112,111.053L249.525,148.947L223.917,174.211L198.308,148.947L185.504,161.579Z"></path>
  <path id="WA" d="M211.112,111.053L223.917,98.421L211.112,85.789L223.917,73.158L236.721,85.789L223.917,98.421L236.721,111.053L262.329,85.789L313.546,136.316L300.742,148.947L287.937,136.316L262.329,161.579Z"></path>
  <path id="MN" d="M364.762,85.789L377.567,73.158L415.979,111.053L403.175,123.684L415.979,136.316L403.175,148.947L415.979,161.579L390.371,186.842L377.567,174.211L390.371,161.579L364.762,136.316L377.567,123.684L364.762,111.053L377.567,98.421Z"></path>
  <path id="WI" d="M403.175,123.684L415.979,111.053L377.567,73.158L403.175,47.895L415.979,60.526L428.783,47.895L454.392,73.158L428.783,98.421L441.587,111.053L415.979,136.316Z"></path>
  <path id="CA" d="M108.679,186.842L172.7,123.684L185.504,136.316L172.7,148.947L185.504,161.579L198.308,148.947L223.917,174.211L211.112,186.842L236.721,212.105L211.112,237.368L262.329,287.895L249.525,300.526L236.721,287.895L185.504,338.421L108.679,262.632L121.483,250L108.679,237.368L121.483,224.737L108.679,212.105L121.483,199.474Z"></path>
  <path id="DC" d="M646.454,237.42L659.258,224.789L671.838,237.368L659.258,249.948L659.034,250L646.454,262.58L633.65,249.948L621.071,237.368L633.65,224.789Z"></path>
  <path id="AK" d="M159.896,401.579L172.7,388.947L198.308,414.211L172.7,439.474L159.896,426.842L172.7,414.211Z"></path>
  <text x="120" y="500" dy="-0.5em">Washington Post</text>
</svg>