<svg width="960" height="500" xmlns="http://www.w3.org/2000/svg">
  <path id="HI" d="M286.452,381.613L301.935,381.613L301.935,397.097L317.419,397.097L317.419,412.581L332.903,412.581L332.903,428.065L317.419,428.065L317.419,412.582L301.935,412.581L301.935,397.098L286.452,397.097L286.452,381.614L270.968,381.613L270.968,366.129L286.452,366.129Z"></path>
  <path id="MI" d="M487.742,102.903L472.258,102.903L456.774,102.903L456.774,87.419L472.258,87.419L487.742,87.419L487.742,102.903L503.226,102.903L518.71,102.903L518.71,118.387L534.194,118.387L549.677,118.387L549.677,133.871L549.677,149.355L549.677,164.839L534.194,164.839L518.71,164.839L503.226,164.839L487.742,164.839L487.742,149.355L487.742,133.871L487.742,118.387Z"></path>
  <path id="ME" d="M750.968,10L766.452,10L766.452,25.484L766.452,40.968L750.968,40.968L735.484,40.968L735.484,25.484L735.484,10Z"></path>
  <path id="NE" d="M379.355,180.323L379.355,195.806L363.871,195.806L348.387,195.806L348.387,180.323L332.903,180.323L332.903,164.839L348.387,164.839L363.871,164.839L379.355,164.839Z"></path>
  <path id="PA" d="M627.097,164.839L642.581,164.839L658.065,164.839L673.548,164.839L689.032,164.839L689.032,180.323L689.032,195.806L689.032,211.29L673.548,211.29L658.065,211.29L642.581,211.29L627.097,211.29L611.613,211.29L596.129,211.29L596.129,195.806L580.645,195.806L580.645,180.323L580.645,164.839L596.129,164.839L611.613,164.839Z"></path>
  <path id="NH" d="M735.484,40.968L750.968,40.968L766.452,40.968L766.452,56.452L766.452,71.935L750.968,71.935L735.484,71.935L735.484,56.452Z"></path>
  <path id="VT" d="M704.516,56.452L720,56.452L735.484,56.452L735.484,71.935L720,71.935L704.516,71.935L689.032,71.935L689.032,56.452Z"></path>
  <path id="MA" d="M735.484,71.935L750.968,71.935L766.452,71.935L766.452,87.419L781.935,87.419L781.935,102.903L766.452,102.903L750.968,102.903L735.484,102.903L720,102.903L704.516,102.903L689.032,102.903L689.032,87.419L689.032,71.935L704.516,71.935L720,71.935Z"></path>
  <path id="RI" d="M766.452,118.387L766.452,133.871L750.968,133.871L735.484,133.871L735.484,118.387L735.484,102.903L750.968,102.903L766.452,102.903Z"></path>
  <path id="CT" d="M735.484,118.387L735.484,133.871L720,133.871L704.516,133.871L704.516,149.355L689.032,149.355L689.032,133.871L689.032,118.387L689.032,102.903L704.516,102.903L720,102.903L735.484,102.903Z"></path>
  <path id="NY" d="M704.516,180.323L689.032,180.323L689.032,164.839L673.548,164.839L658.065,164.839L642.581,164.839L627.097,164.839L611.613,164.839L596.129,164.839L580.645,164.839L580.645,149.355L596.129,149.355L596.129,133.871L611.613,133.871L611.613,118.387L627.097,118.387L627.097,102.903L642.581,102.903L642.581,87.419L658.065,87.419L658.065,71.935L673.548,71.935L689.032,71.935L689.032,87.419L689.032,102.903L689.032,118.387L689.032,133.871L689.032,149.355L689.032,164.839L704.516,164.839L720,164.839L720,180.323Z"></path>
  <path id="NJ" d="M689.032,180.323L704.516,180.323L720,180.323L735.484,180.323L735.484,195.806L735.484,211.29L750.968,211.29L750.968,226.774L750.968,242.258L750.968,257.742L735.484,257.742L720,257.742L704.516,257.742L704.516,242.258L704.516,226.774L704.516,211.29L704.516,195.806L689.032,195.806Z"></path>
  <path id="DE" d="M689.032,195.806L704.516,195.806L704.516,211.29L704.516,226.774L704.516,242.258L689.032,242.258L689.032,226.774L689.032,211.29Z"></path>
  <path id="MD" d="M689.032,226.774L689.032,242.258L704.516,242.258L704.516,257.742L704.516,273.226L689.032,273.226L689.032,257.742L673.548,257.742L673.548,242.258L658.065,242.258L658.065,226.774L642.581,226.774L627.097,226.774L611.613,226.774L611.613,211.29L627.097,211.29L642.581,211.29L658.065,211.29L673.548,211.29L689.032,211.29Z"></path>
  <path id="WV" d="M611.613,226.774L611.613,242.258L596.129,242.258L580.645,242.258L580.645,226.774L580.645,211.29L580.645,195.806L596.129,195.806L596.129,211.29L611.613,211.29Z"></path>
  <path id="OH" d="M549.677,180.323L565.161,180.323L565.161,164.839L580.645,164.839L580.645,180.323L580.645,195.806L580.645,211.29L580.645,226.774L580.645,242.258L565.161,242.258L549.677,242.258L534.194,242.258L518.71,242.258L518.71,226.774L518.71,211.29L518.71,195.806L518.71,180.323L518.71,164.839L534.194,164.839L534.194,180.323Z"></path>
  <path id="WI" d="M425.806,87.419L441.29,87.419L456.774,87.419L456.774,102.903L456.774,118.387L472.258,118.387L472.258,133.871L472.258,149.355L456.774,149.355L441.29,149.355L425.806,149.355L425.806,133.871L425.806,118.387L425.806,102.903Z"></path>
  <path id="MN" d="M379.355,118.387L379.355,102.903L394.839,102.903L410.323,102.903L410.323,87.419L425.806,87.419L425.806,102.903L425.806,118.387L425.806,133.871L425.806,149.355L410.323,149.355L394.839,149.355L379.355,149.355L379.355,133.871Z"></path>
  <path id="IA" d="M410.323,149.355L425.806,149.355L425.806,164.839L425.806,180.323L410.323,180.323L394.839,180.323L379.355,180.323L379.355,164.839L379.355,149.355L394.839,149.355Z"></path>
  <path id="ND" d="M363.871,149.355L348.387,149.355L332.903,149.355L332.903,133.871L348.387,133.871L363.871,133.871L379.355,133.871L379.355,149.355Z"></path>
  <path id="SD" d="M363.871,164.839L348.387,164.839L332.903,164.839L332.903,149.355L348.387,149.355L363.871,149.355L379.355,149.355L379.355,164.839Z"></path>
  <path id="IN" d="M518.71,180.323L518.71,195.806L518.71,211.29L518.71,226.774L518.71,242.258L503.226,242.258L487.742,242.258L472.258,242.258L472.258,226.774L487.742,226.774L487.742,211.29L487.742,195.806L487.742,180.323L487.742,164.839L503.226,164.839L518.71,164.839Z"></path>
  <path id="IL" d="M487.742,195.806L487.742,211.29L487.742,226.774L472.258,226.774L472.258,242.258L456.774,242.258L441.29,242.258L441.29,226.774L441.29,211.29L425.806,211.29L425.806,195.806L410.323,195.806L410.323,180.323L425.806,180.323L425.806,164.839L425.806,149.355L441.29,149.355L456.774,149.355L472.258,149.355L472.258,164.839L472.258,180.323L487.742,180.323Z"></path>
  <path id="MO" d="M379.355,180.323L394.839,180.323L410.323,180.323L410.323,195.806L425.806,195.806L425.806,211.29L441.29,211.29L441.29,226.774L441.29,242.258L425.806,242.258L410.323,242.258L394.839,242.258L394.839,226.774L394.839,211.29L394.839,195.806L379.355,195.806Z"></path>
  <path id="KS" d="M379.355,195.806L394.839,195.806L394.839,211.29L394.839,226.774L379.355,226.774L363.871,226.774L348.387,226.774L348.387,211.29L348.387,195.806L363.871,195.806Z"></path>
  <path id="WY" d="M301.935,180.323L286.452,180.323L270.968,180.323L270.968,164.839L286.452,164.839L301.935,164.839L317.419,164.839L317.419,180.323Z"></path>
  <path id="MT" d="M286.452,164.839L270.968,164.839L255.484,164.839L255.484,149.355L270.968,149.355L286.452,149.355L301.935,149.355L301.935,164.839Z"></path>
  <path id="CO" d="M301.935,180.323L317.419,180.323L332.903,180.323L348.387,180.323L348.387,195.806L348.387,211.29L348.387,226.774L332.903,226.774L317.419,226.774L301.935,226.774L301.935,211.29L301.935,195.806Z"></path>
  <path id="UT" d="M270.968,195.806L270.968,180.323L286.452,180.323L301.935,180.323L301.935,195.806L301.935,211.29L301.935,226.774L286.452,226.774L270.968,226.774L270.968,211.29Z"></path>
  <path id="NV" d="M270.968,195.806L270.968,211.29L270.968,226.774L255.484,226.774L240,226.774L240,211.29L240,195.806L240,180.323L255.484,180.323L270.968,180.323Z"></path>
  <path id="ID" d="M255.484,180.323L240,180.323L240,164.839L240,149.355L240,133.871L255.484,133.871L255.484,149.355L255.484,164.839L270.968,164.839L270.968,180.323Z"></path>
  <path id="WA" d="M193.548,87.419L209.032,87.419L209.032,71.935L224.516,71.935L240,71.935L240,87.419L240,102.903L240,118.387L224.516,118.387L209.032,118.387L209.032,133.871L193.548,133.871L193.548,118.387L178.065,118.387L178.065,102.903L178.065,87.419L178.065,71.935L193.548,71.935Z"></path>
  <path id="OR" d="M178.065,118.387L193.548,118.387L193.548,133.871L209.032,133.871L209.032,118.387L224.516,118.387L240,118.387L240,133.871L240,149.355L224.516,149.355L209.032,149.355L193.548,149.355L178.065,149.355L178.065,133.871Z"></path>
  <path id="CA" d="M209.032,149.355L224.516,149.355L240,149.355L240,164.839L240,180.323L240,195.806L240,211.29L240,226.774L255.484,226.774L255.484,242.258L255.484,257.742L255.484,273.226L270.968,273.226L270.968,288.71L270.968,304.194L255.484,304.194L255.484,319.677L255.484,335.161L240,335.161L224.516,335.161L209.032,335.161L193.548,335.161L193.548,319.677L193.548,304.194L178.065,304.194L178.065,288.71L178.065,273.226L178.065,257.742L178.065,242.258L178.065,226.774L178.065,211.29L178.065,195.806L178.065,180.323L178.065,164.839L178.065,149.355L193.548,149.355Z"></path>
  <path id="AZ" d="M255.484,226.774L270.968,226.774L286.452,226.774L301.935,226.774L301.935,242.258L301.935,257.742L301.935,273.226L301.935,288.71L286.452,288.71L270.968,288.71L270.968,273.226L255.484,273.226L255.484,257.742L255.484,242.258Z"></path>
  <path id="NM" d="M301.935,226.774L317.419,226.774L332.903,226.774L332.903,242.258L332.903,257.742L317.419,257.742L317.419,273.226L301.935,273.226L301.935,257.742L301.935,242.258Z"></path>
  <path id="OK" d="M379.355,226.774L394.839,226.774L394.839,242.258L394.839,257.742L379.355,257.742L363.871,257.742L348.387,257.742L348.387,242.258L332.903,242.258L332.903,226.774L348.387,226.774L363.871,226.774Z"></path>
  <path id="AR" d="M441.29,257.742L425.806,257.742L425.806,273.226L410.323,273.226L394.839,273.226L394.839,257.742L394.839,242.258L410.323,242.258L425.806,242.258L441.29,242.258L456.774,242.258L456.774,257.742Z"></path>
  <path id="TN" d="M487.742,242.258L503.226,242.258L518.71,242.258L518.71,257.742L534.194,257.742L549.677,257.742L549.677,273.226L534.194,273.226L518.71,273.226L503.226,273.226L487.742,273.226L472.258,273.226L456.774,273.226L441.29,273.226L441.29,257.742L456.774,257.742L456.774,242.258L472.258,242.258Z"></path>
  <path id="KY" d="M518.71,242.258L534.194,242.258L549.677,242.258L565.161,242.258L580.645,242.258L580.645,257.742L596.129,257.742L611.613,257.742L611.613,273.226L596.129,273.226L580.645,273.226L565.161,273.226L549.677,273.226L549.677,257.742L534.194,257.742L518.71,257.742Z"></path>
  <path id="VA" d="M611.613,226.774L627.097,226.774L642.581,226.774L658.065,226.774L658.065,242.258L673.548,242.258L673.548,257.742L673.548,273.226L658.065,273.226L642.581,273.226L627.097,273.226L611.613,273.226L611.613,257.742L596.129,257.742L580.645,257.742L580.645,242.258L596.129,242.258L611.613,242.258Z"></path>
  <path id="NC" d="M565.161,273.226L580.645,273.226L596.129,273.226L611.613,273.226L627.097,273.226L642.581,273.226L658.065,273.226L673.548,273.226L673.548,288.71L673.548,304.194L658.065,304.194L658.065,319.677L642.581,319.677L627.097,319.677L611.613,319.677L611.613,304.194L596.129,304.194L596.129,288.71L580.645,288.71L565.161,288.71Z"></path>
  <path id="DC" d="M735.484,288.71L750.968,288.71L750.968,304.194L750.968,319.677L735.484,319.677L735.484,304.194L720,304.194L720,288.71Z"></path>
  <path id="FL" d="M611.613,366.129L627.097,366.129L642.581,366.129L658.065,366.129L658.065,381.613L658.065,397.097L658.065,412.581L658.065,428.065L658.065,443.548L658.065,459.032L658.065,474.516L658.065,490L642.581,490L627.097,490L627.097,474.516L627.097,459.032L611.613,459.032L611.613,443.548L611.613,428.065L611.613,412.581L611.613,397.097L611.613,381.613L596.129,381.613L580.645,381.613L580.645,366.129L565.161,366.129L549.677,366.129L534.194,366.129L534.194,350.645L549.677,350.645L565.161,350.645L580.645,350.645L596.129,350.645L611.613,350.645Z"></path>
  <path id="SC" d="M642.581,366.129L627.097,366.129L611.613,366.129L611.613,350.645L611.613,335.161L611.613,319.677L627.097,319.677L642.581,319.677L658.065,319.677L658.065,335.161L658.065,350.645L658.065,366.129Z"></path>
  <path id="GA" d="M549.677,273.226L565.161,273.226L565.161,288.71L580.645,288.71L596.129,288.71L596.129,304.194L611.613,304.194L611.613,319.677L611.613,335.161L611.613,350.645L596.129,350.645L580.645,350.645L565.161,350.645L549.677,350.645L549.677,335.161L549.677,319.677L549.677,304.194L549.677,288.71Z"></path>
  <path id="AL" d="M503.226,273.226L518.71,273.226L534.194,273.226L549.677,273.226L549.677,288.71L549.677,304.194L549.677,319.677L534.194,319.677L518.71,319.677L503.226,319.677L503.226,304.194L503.226,288.71Z"></path>
  <path id="MS" d="M487.742,273.226L503.226,273.226L503.226,288.71L503.226,304.194L487.742,304.194L472.258,304.194L456.774,304.194L456.774,288.71L456.774,273.226L472.258,273.226Z"></path>
  <path id="LA" d="M425.806,257.742L441.29,257.742L441.29,273.226L456.774,273.226L456.774,288.71L456.774,304.194L472.258,304.194L472.258,319.677L456.774,319.677L441.29,319.677L425.806,319.677L425.806,304.194L425.806,288.71L425.806,273.226Z"></path>
  <path id="TX" d="M363.871,257.742L379.355,257.742L394.839,257.742L394.839,273.226L410.323,273.226L425.806,273.226L425.806,288.71L425.806,304.194L425.806,319.677L410.323,319.677L410.323,335.161L394.839,335.161L394.839,350.645L394.839,366.129L379.355,366.129L363.871,366.129L363.871,350.645L348.387,350.645L348.387,335.161L332.903,335.161L332.903,319.677L317.419,319.677L317.419,304.194L317.419,288.71L301.935,288.71L301.935,273.226L317.419,273.226L317.419,257.742L332.903,257.742L332.903,242.258L348.387,242.258L348.387,257.742Z"></path>
  <path id="AK" d="M209.032,397.097L209.032,381.613L224.516,381.613L224.516,397.097L224.516,412.581L240,412.581L240,428.065L224.516,428.065L224.516,412.581L209.032,412.581Z"></path>
  <text x="120" y="500" dy="-0.5em">Wall Street Journal</text>
</svg>